if (_typeface_js && _typeface_js.loadFace) _typeface_js.loadFace({"glyphs":{"S":{"x_min":40.5,"x_max":706.015625,"ha":747,"o":"m 388 937 q 531 921 459 937 q 665 868 603 905 l 665 698 q 386 783 527 783 q 282 756 322 783 q 243 683 243 730 q 263 627 243 651 q 317 589 284 604 q 401 558 350 574 q 554 498 491 529 q 661 412 617 467 q 706 271 706 356 q 658 119 706 183 q 529 21 610 54 q 349 -11 447 -11 q 198 9 271 -11 q 40 76 124 29 l 40 252 q 200 172 115 201 q 359 142 285 142 q 474 174 427 142 q 520 260 520 206 q 492 328 520 300 q 427 371 464 355 q 334 406 390 387 q 188 463 247 431 q 93 547 128 495 q 57 675 57 598 q 101 819 57 760 q 219 908 144 878 q 388 937 294 937 "},"F":{"x_min":95.484375,"x_max":699.265625,"ha":710,"o":"m 641 531 l 641 382 l 280 382 l 280 0 l 95 0 l 95 925 l 699 925 l 699 771 l 280 771 l 280 531 l 641 531 "},"T":{"x_min":27,"x_max":781.25,"ha":809,"o":"m 311 0 l 311 771 l 27 771 l 27 925 l 781 925 l 781 771 l 496 771 l 496 0 l 311 0 "},"N":{"x_min":91.625,"x_max":963.53125,"ha":1057,"o":"m 269 0 l 91 0 l 91 925 l 290 925 l 786 272 l 786 925 l 963 925 l 963 0 l 765 0 l 269 652 l 269 0 "},"K":{"x_min":95.484375,"x_max":896.984375,"ha":914,"o":"m 280 925 l 280 0 l 95 0 l 95 925 l 280 925 m 292 491 l 612 925 l 839 925 l 504 497 l 896 0 l 662 0 l 292 491 "},"Y":{"x_min":17.359375,"x_max":900.84375,"ha":920,"o":"m 366 442 l 17 925 l 248 925 l 462 609 l 677 925 l 900 925 l 551 442 l 551 0 l 366 0 l 366 442 "},"E":{"x_min":95.484375,"x_max":699.265625,"ha":757,"o":"m 641 543 l 641 395 l 280 395 l 280 154 l 699 154 l 699 0 l 95 0 l 95 925 l 699 925 l 699 771 l 280 771 l 280 543 l 641 543 "},"V":{"x_min":40.5,"x_max":957.75,"ha":999,"o":"m 244 925 l 498 238 l 754 925 l 957 925 l 598 0 l 399 0 l 40 925 l 244 925 "},"Z":{"x_min":45.328125,"x_max":799.578125,"ha":846,"o":"m 799 0 l 45 0 l 45 154 l 562 771 l 45 771 l 45 925 l 799 925 l 799 771 l 283 154 l 799 154 l 799 0 "},"Q":{"x_min":27,"x_max":1012.734375,"ha":1042,"o":"m 1012 462 q 979 287 1012 370 q 885 140 946 205 l 1012 0 l 821 0 l 773 54 q 519 -11 658 -11 q 271 50 384 -11 q 93 221 159 112 q 27 462 27 330 q 93 704 27 595 q 271 875 159 813 q 519 937 384 937 q 767 875 654 937 q 946 704 880 813 q 1012 462 1012 595 m 519 161 q 649 190 589 161 l 508 347 l 699 347 l 757 282 q 813 462 813 361 q 774 616 813 547 q 667 725 734 685 q 519 764 599 764 q 372 725 439 764 q 265 616 304 685 q 226 462 226 547 q 265 309 226 378 q 372 200 304 240 q 519 161 439 161 "},"M":{"x_min":95.484375,"x_max":1087.953125,"ha":1185,"o":"m 638 273 l 540 273 l 273 657 l 273 0 l 95 0 l 95 925 l 303 925 l 592 515 l 876 925 l 1087 925 l 1087 0 l 902 0 l 902 658 l 638 273 "},"C":{"x_min":27,"x_max":842.015625,"ha":888,"o":"m 505 937 q 692 910 610 937 q 842 831 773 882 l 842 627 q 697 729 776 694 q 530 764 619 764 q 377 726 446 764 q 267 618 307 687 q 226 462 226 549 q 267 307 226 376 q 377 199 307 238 q 530 161 446 161 q 697 196 619 161 q 842 297 776 231 l 842 94 q 694 14 776 41 q 505 -11 613 -11 q 264 50 374 -11 q 91 221 155 112 q 27 462 27 330 q 91 704 27 595 q 264 875 155 813 q 505 937 374 937 "},"L":{"x_min":106.09375,"x_max":709.875,"ha":731,"o":"m 106 0 l 106 925 l 291 925 l 291 172 l 709 172 l 709 0 l 106 0 "},"A":{"x_min":40.5,"x_max":957.75,"ha":999,"o":"m 399 925 l 598 925 l 957 0 l 772 0 l 683 237 l 313 237 l 225 0 l 40 0 l 399 925 m 498 763 l 367 391 l 629 391 l 498 763 "},"J":{"x_min":-1.921875,"x_max":556.515625,"ha":652,"o":"m 556 321 q 517 145 556 220 q 408 29 479 70 q 242 -11 337 -11 q 107 9 171 -11 q -1 69 43 30 l -1 271 q 97 198 43 225 q 198 171 151 171 q 322 214 272 171 q 371 339 371 256 l 371 925 l 556 925 l 556 321 "},"O":{"x_min":27,"x_max":1012.734375,"ha":1042,"o":"m 519 937 q 767 875 653 937 q 946 704 880 813 q 1012 462 1012 595 q 946 221 1012 330 q 767 50 880 112 q 519 -11 653 -11 q 272 50 385 -11 q 93 221 159 112 q 27 462 27 330 q 93 704 27 595 q 272 875 159 813 q 519 937 385 937 m 519 764 q 372 725 439 764 q 265 616 304 685 q 226 462 226 547 q 265 309 226 378 q 372 200 304 240 q 519 161 439 161 q 667 200 599 161 q 774 309 734 240 q 813 462 813 378 q 774 616 813 547 q 667 725 734 685 q 519 764 599 764 "},"W":{"x_min":22.171875,"x_max":1364.78125,"ha":1389,"o":"m 496 0 l 311 0 l 22 925 l 207 925 l 404 262 l 600 925 l 786 925 l 982 262 l 1179 925 l 1364 925 l 1075 0 l 890 0 l 693 663 l 496 0 "}," ":{"x_min":0,"x_max":0,"ha":394},"X":{"x_min":17.359375,"x_max":937.5,"ha":957,"o":"m 475 349 l 242 0 l 17 0 l 363 480 l 46 925 l 277 925 l 481 617 l 684 925 l 908 925 l 591 486 l 937 0 l 706 0 l 475 349 "},"P":{"x_min":95.484375,"x_max":765.8125,"ha":804,"o":"m 450 925 q 608 884 536 925 q 723 774 680 843 q 765 622 765 705 q 723 469 765 539 q 608 359 680 400 q 450 318 536 318 l 280 318 l 280 0 l 95 0 l 95 925 l 450 925 m 428 472 q 502 492 468 472 q 557 547 537 513 q 577 622 577 581 q 557 696 577 662 q 502 751 537 731 q 428 771 468 771 l 280 771 l 280 472 l 428 472 "},"B":{"x_min":95.484375,"x_max":798.609375,"ha":841,"o":"m 439 925 q 596 894 527 925 q 702 807 664 863 q 740 682 740 752 q 710 573 740 623 q 627 493 679 523 q 751 403 705 464 q 798 263 798 342 q 758 127 798 188 q 644 33 717 67 q 478 0 571 0 l 95 0 l 95 925 l 439 925 m 433 550 q 520 584 485 550 q 555 666 555 618 q 520 749 555 715 q 433 784 485 784 l 280 784 l 280 550 l 433 550 m 470 141 q 543 160 510 141 q 594 209 575 178 q 613 278 613 241 q 594 347 613 316 q 543 396 575 378 q 470 414 510 414 l 280 414 l 280 141 l 470 141 "},"H":{"x_min":95.484375,"x_max":923.03125,"ha":1020,"o":"m 287 383 l 287 0 l 95 0 l 95 925 l 287 925 l 287 556 l 731 556 l 731 925 l 923 925 l 923 0 l 731 0 l 731 383 l 287 383 "},"D":{"x_min":95.484375,"x_max":962.578125,"ha":992,"o":"m 473 925 q 719 865 607 925 q 896 699 831 805 q 962 462 962 594 q 896 226 962 331 q 719 60 831 120 q 473 0 607 0 l 95 0 l 95 925 l 473 925 m 473 166 q 618 204 552 166 q 723 310 684 243 q 761 462 761 378 q 723 615 761 547 q 618 720 684 682 q 473 759 552 759 l 280 759 l 280 166 l 473 166 "},"R":{"x_min":101.265625,"x_max":828.5,"ha":862,"o":"m 457 925 q 614 884 543 925 q 729 774 686 843 q 771 622 771 705 q 724 466 771 536 q 602 363 678 396 l 828 0 l 617 0 l 419 318 l 286 318 l 286 0 l 101 0 l 101 925 l 457 925 m 434 472 q 509 492 475 472 q 563 547 543 513 q 583 622 583 581 q 563 696 583 662 q 509 751 543 731 q 434 771 475 771 l 286 771 l 286 472 l 434 472 "},"I":{"x_min":106.09375,"x_max":291.28125,"ha":400,"o":"m 291 925 l 291 0 l 106 0 l 106 925 l 291 925 "},"G":{"x_min":27,"x_max":878.65625,"ha":946,"o":"m 538 937 q 717 910 623 937 q 878 831 812 884 l 878 641 q 726 731 814 698 q 549 764 638 764 q 381 726 455 764 q 267 618 308 687 q 226 462 226 549 q 267 301 226 373 q 380 189 308 229 q 543 148 453 148 q 637 165 589 148 q 723 210 685 182 l 723 375 l 519 375 l 519 512 l 878 512 l 878 108 q 711 19 804 50 q 524 -11 618 -11 q 272 50 386 -11 q 93 221 159 112 q 27 462 27 329 q 90 700 27 592 q 269 873 153 809 q 538 937 385 937 "},"U":{"x_min":81.015625,"x_max":879.625,"ha":962,"o":"m 879 383 q 826 177 879 268 q 680 38 772 87 q 480 -11 589 -11 q 278 38 370 -11 q 134 177 187 87 q 81 383 81 267 l 81 925 l 273 925 l 273 383 q 300 265 273 316 q 375 186 327 214 q 480 158 422 158 q 585 186 538 158 q 659 265 632 214 q 686 383 686 316 l 686 925 l 879 925 l 879 383 "}}}
